<svg xmlns="http://www.w3.org/2000/svg" width="32" height="32" viewBox="0 0 32 32">
  <g id="favicon-BDO" transform="translate(-0.324)">
    <path id="Path_9281" data-name="Path 9281" d="M6,0H26a6,6,0,0,1,6,6V26a6,6,0,0,1-6,6H6a6,6,0,0,1-6-6V6A6,6,0,0,1,6,0Z" transform="translate(0.324)" fill="#004ea8"/>
    <g id="Group_7982" data-name="Group 7982" transform="translate(5.065 12.031)">
      <path id="Path_2499" data-name="Path 2499" d="M450.111,173.991c-1.767,0-2.511-1.424-2.511-3.022s.744-3.022,2.511-3.022,2.512,1.424,2.512,3.022-.745,3.022-2.512,3.022m0-6.991c-2.451,0-4.41,1.523-4.41,3.969s1.959,3.969,4.41,3.969,4.411-1.523,4.411-3.969S452.563,167,450.111,167" transform="translate(-431.661 -167)" fill="#fdb913"/>
      <path id="Path_2500" data-name="Path 2500" d="M209.152,177.452h-.99v-5.5h.99c2.116,0,2.969,1.171,2.969,2.749s-.854,2.749-2.969,2.749m-5.93,0h-2.433v-2.342h2.433c.98,0,1.451.46,1.451,1.171s-.471,1.171-1.451,1.171m-2.433-5.5h1.765c.9,0,1.34.425,1.34,1.082s-.435,1.082-1.34,1.082h-1.765Zm12.252,2.751a3.871,3.871,0,0,1,.5-1.955c-.684-1.17-2.1-1.789-4.181-1.789h-2.988V175.5a2.074,2.074,0,0,0-1.613-1.129,1.636,1.636,0,0,0,.992-1.559c0-1.119-.742-1.85-2.5-1.85l0,0H199v7.482h4.642c1.38,0,2.364-.383,2.731-1.281v1.281h2.988c2.082,0,3.5-.619,4.18-1.786a3.871,3.871,0,0,1-.5-1.952" transform="translate(-199 -170.736)" fill="#fff"/>
    </g>
  </g>
</svg>
